<svg width="1559" height="484" viewBox="0 0 1559 484" fill="none" xmlns="http://www.w3.org/2000/svg">
<rect width="1559" height="484" fill="#F7EBDA"/>
<g style="mix-blend-mode:overlay">
<path fill-rule="evenodd" clip-rule="evenodd" d="M1089.58 33.7804C1088.98 41.3021 1085.68 48.2978 1080.43 53.2287C1075.17 58.1594 1068.39 60.6213 1061.56 60.0728C1054.73 59.5242 1048.43 56.0101 1044.03 50.3036C1039.64 44.597 1037.51 37.1654 1038.11 29.6437C1038.11 29.6437 1052.32 37.0296 1063.85 31.712C1075.38 26.3945 1089.58 33.7804 1089.58 33.7804ZM1096.64 53.7557C1095.01 56.6579 1093.12 59.2597 1091.05 61.4164C1089.78 62.4545 1088.71 63.4373 1087.71 64.3488C1082.49 69.1267 1079.4 71.9466 1061.68 70.5226C1043.2 69.0368 1041.05 66.3461 1035.81 59.7946C1035.07 58.869 1034.27 57.8664 1033.36 56.7793C1025.95 47.9968 1026.2 39.7738 1027.03 29.4575L1034.38 30.0485C1033.19 44.7431 1038.95 52.3104 1038.95 52.3104C1038.95 52.3104 1043.86 62.1348 1062.24 63.6121C1080.62 65.0895 1085.93 56.0868 1085.93 56.0868C1085.93 56.0868 1093.09 46.077 1094.07 33.9755L1101.77 34.595C1102.75 34.3777 1103.76 34.2764 1104.77 34.2977C1107.34 34.3514 1109.82 35.1813 1111.86 36.6641C1113.89 38.147 1115.37 40.2039 1116.08 42.5293C1116.78 44.8547 1116.67 47.3247 1115.76 49.5726C1114.86 51.8205 1113.2 53.7265 1111.04 55.0075C1108.89 56.2885 1106.34 56.8764 1103.78 56.6838C1101.23 56.4913 1098.8 55.5283 1096.85 53.9382C1096.78 53.8781 1096.71 53.8173 1096.64 53.7557ZM1101.52 40.8962C1102.46 40.3362 1103.57 40.0485 1104.7 40.0721C1105.94 40.0981 1107.14 40.5005 1108.13 41.2195C1109.12 41.9385 1109.83 42.9358 1110.18 44.0633C1110.52 45.1908 1110.46 46.3885 1110.03 47.4784C1109.59 48.5684 1108.78 49.4925 1107.74 50.1136C1106.69 50.7349 1105.46 51.0198 1104.22 50.9265C1102.98 50.8331 1101.8 50.3662 1100.86 49.5952C1100.25 49.0992 1099.76 48.4945 1099.42 47.8217C1100.28 45.5959 1100.99 43.2716 1101.52 40.8962ZM1027.67 73.0086L1094.78 78.4027C1096.04 78.5042 1096.97 79.7475 1096.86 81.1797C1096.74 82.6119 1095.63 83.6906 1094.36 83.589L1027.25 78.195C1025.98 78.0934 1025.05 76.8501 1025.17 75.4179C1025.28 73.9858 1026.4 72.9071 1027.67 73.0086ZM1091.81 268.934C1091.08 273.419 1088.78 277.461 1085.39 280.171C1082 282.881 1077.81 284.037 1073.74 283.385C1069.67 282.733 1066.06 280.327 1063.69 276.695C1061.32 273.063 1060.4 268.503 1061.12 264.019C1061.12 264.019 1069.29 269.122 1076.46 266.477C1083.63 263.831 1091.81 268.934 1091.81 268.934ZM1095.09 281.253C1093.98 282.918 1092.72 284.39 1091.38 285.586C1090.56 286.149 1089.87 286.688 1089.23 287.187L1089.23 287.187C1085.87 289.807 1083.88 291.353 1073.32 289.661C1062.3 287.895 1061.14 286.179 1058.31 282.001C1057.91 281.411 1057.48 280.771 1056.98 280.075C1052.95 274.456 1053.49 269.533 1054.48 263.383L1058.86 264.085C1057.45 272.846 1060.54 277.658 1060.54 277.658C1060.54 277.658 1063.02 283.785 1073.98 285.541C1084.94 287.297 1088.56 282.146 1088.56 282.146C1088.56 282.146 1093.33 276.478 1094.49 269.264L1099.08 270C1099.68 269.915 1100.29 269.902 1100.9 269.963C1102.43 270.117 1103.88 270.732 1105.03 271.718C1106.18 272.704 1106.97 274.008 1107.29 275.437C1107.6 276.865 1107.42 278.342 1106.76 279.648C1106.11 280.954 1105.03 282.019 1103.67 282.686C1102.32 283.352 1100.76 283.585 1099.24 283.348C1097.71 283.112 1096.3 282.419 1095.21 281.373C1095.17 281.334 1095.13 281.294 1095.09 281.253ZM1098.63 273.768C1099.22 273.477 1099.9 273.357 1100.57 273.424C1101.32 273.499 1102.02 273.797 1102.58 274.275C1103.14 274.753 1103.52 275.385 1103.67 276.078C1103.82 276.771 1103.74 277.487 1103.42 278.12C1103.1 278.753 1102.58 279.27 1101.92 279.593C1101.26 279.916 1100.51 280.029 1099.77 279.914C1099.03 279.8 1098.35 279.464 1097.82 278.957C1097.48 278.63 1097.21 278.244 1097.04 277.824C1097.66 276.53 1098.2 275.169 1098.63 273.768ZM1052.79 289.544L1092.81 295.954C1093.56 296.075 1094.06 296.865 1093.92 297.719C1093.78 298.572 1093.06 299.167 1092.31 299.046L1052.29 292.636C1051.54 292.516 1051.04 291.726 1051.18 290.872C1051.32 290.018 1052.04 289.423 1052.79 289.544ZM687.565 104.377C688.522 107.94 688.155 111.7 686.545 114.831C684.936 117.961 682.215 120.205 678.983 121.07C675.75 121.934 672.269 121.348 669.307 119.44C666.345 117.532 664.143 114.459 663.187 110.896C663.187 110.896 670.941 111.972 675.376 107.637C679.811 103.301 687.565 104.377 687.565 104.377ZM694.095 112.42C693.824 114.023 693.382 115.53 692.784 116.861C692.37 117.547 692.036 118.176 691.727 118.759C690.106 121.814 689.149 123.617 680.756 125.861C672 128.203 670.568 127.316 667.082 125.156C666.59 124.85 666.056 124.52 665.455 124.169C660.601 121.338 659.364 117.511 658.052 112.625L661.534 111.694C663.403 118.654 667.295 121.197 667.295 121.197C667.295 121.197 671.171 124.916 679.878 122.588C688.584 120.26 689.55 115.245 689.55 115.245C689.55 115.245 691.201 109.465 689.662 103.733L693.313 102.757C693.726 102.497 694.173 102.286 694.645 102.129C695.834 101.735 697.113 101.71 698.295 102.06C699.476 102.409 700.495 103.114 701.202 104.07C701.908 105.025 702.264 106.18 702.216 107.364C702.168 108.547 701.719 109.696 700.935 110.639C700.152 111.582 699.076 112.269 697.867 112.599C696.659 112.929 695.382 112.883 694.226 112.469C694.182 112.453 694.139 112.437 694.095 112.42ZM694.229 105.701C694.573 105.288 695.034 104.975 695.558 104.801C696.134 104.609 696.755 104.598 697.327 104.767C697.9 104.937 698.394 105.278 698.737 105.742C699.079 106.205 699.252 106.765 699.229 107.339C699.205 107.913 698.988 108.47 698.608 108.927C698.228 109.384 697.706 109.717 697.12 109.877C696.534 110.037 695.915 110.015 695.354 109.814C694.994 109.685 694.67 109.486 694.402 109.233C694.432 108.067 694.376 106.881 694.229 105.701ZM665.502 132.573L697.291 124.073C697.889 123.913 698.522 124.333 698.704 125.011C698.887 125.689 698.549 126.369 697.951 126.529L666.162 135.03C665.563 135.19 664.931 134.77 664.748 134.091C664.566 133.413 664.904 132.733 665.502 132.573ZM274.877 180.227C276.618 186.711 275.95 193.554 273.021 199.252C270.091 204.949 265.14 209.033 259.257 210.607C253.373 212.18 247.039 211.113 241.648 207.641C236.257 204.169 232.25 198.575 230.509 192.092C230.509 192.092 244.622 194.05 252.693 186.159C260.765 178.269 274.877 180.227 274.877 180.227ZM286.761 194.865C286.268 197.781 285.463 200.524 284.374 202.948C283.62 204.196 283.014 205.339 282.451 206.4L282.451 206.4C279.5 211.961 277.759 215.243 262.485 219.327C246.549 223.588 243.943 221.974 237.599 218.042L237.599 218.042C236.703 217.487 235.732 216.885 234.638 216.248C225.803 211.095 223.552 204.13 221.164 195.238L227.502 193.543C230.903 206.21 237.986 210.838 237.986 210.838C237.986 210.838 245.04 217.607 260.886 213.37C276.731 209.133 278.489 200.007 278.489 200.007C278.489 200.007 281.493 189.487 278.693 179.055L285.336 177.279C286.089 176.806 286.903 176.421 287.761 176.136C289.924 175.418 292.254 175.373 294.403 176.01C296.553 176.646 298.408 177.928 299.694 179.667C300.979 181.406 301.627 183.509 301.539 185.662C301.452 187.816 300.635 189.906 299.209 191.623C297.784 193.339 295.826 194.59 293.626 195.19C291.426 195.79 289.102 195.707 286.998 194.953C286.919 194.925 286.84 194.896 286.761 194.865ZM287.004 182.636C287.63 181.885 288.47 181.314 289.422 180.998C290.471 180.65 291.601 180.628 292.643 180.937C293.685 181.245 294.585 181.867 295.208 182.71C295.832 183.554 296.145 184.573 296.103 185.617C296.061 186.661 295.664 187.675 294.973 188.507C294.282 189.339 293.333 189.946 292.266 190.237C291.199 190.528 290.072 190.488 289.052 190.122C288.396 189.887 287.807 189.525 287.318 189.064C287.373 186.943 287.272 184.784 287.004 182.636ZM234.724 231.542L292.577 216.072C293.666 215.78 294.818 216.545 295.149 217.78C295.481 219.014 294.866 220.251 293.777 220.542L235.924 236.013C234.835 236.304 233.683 235.54 233.351 234.305C233.02 233.07 233.634 231.834 234.724 231.542ZM147.737 413.95C146.965 420.618 143.82 426.736 138.996 430.958C134.171 435.179 128.061 437.159 122.011 436.461C115.96 435.763 110.464 432.444 106.731 427.236C102.999 422.027 101.336 415.355 102.108 408.686C102.108 408.686 114.508 415.69 124.923 411.318C135.337 406.946 147.737 413.95 147.737 413.95ZM153.389 431.926C151.856 434.456 150.095 436.711 148.189 438.564C147.028 439.448 146.042 440.288 145.128 441.068L145.128 441.068C140.334 445.155 137.504 447.566 121.796 445.754C105.408 443.864 103.58 441.405 99.1307 435.42C98.5022 434.574 97.8212 433.658 97.0395 432.663C90.7246 424.627 91.1995 417.325 92.2588 408.179L98.7772 408.931C97.2683 421.958 102.147 428.863 102.147 428.863C102.147 428.863 106.21 437.748 122.506 439.628C138.802 441.508 143.802 433.668 143.802 433.668C143.802 433.668 150.475 424.99 151.717 414.262L158.55 415.05C159.424 414.887 160.322 414.828 161.226 414.878C163.502 415.005 165.684 415.819 167.449 417.201C169.213 418.582 170.465 420.456 171.019 422.545C171.573 424.634 171.399 426.826 170.524 428.797C169.649 430.767 168.118 432.411 166.16 433.483C164.201 434.555 161.919 434.999 159.652 434.749C157.386 434.499 155.255 433.568 153.577 432.095C153.514 432.039 153.451 431.983 153.389 431.926ZM158.125 420.644C158.984 420.175 159.975 419.954 160.977 420.009C162.081 420.071 163.139 420.466 163.995 421.135C164.85 421.805 165.457 422.714 165.726 423.727C165.995 424.74 165.91 425.803 165.486 426.758C165.061 427.713 164.319 428.51 163.37 429.03C162.42 429.55 161.314 429.765 160.215 429.644C159.116 429.523 158.083 429.072 157.269 428.357C156.745 427.898 156.331 427.345 156.047 426.736C156.88 424.784 157.582 422.74 158.125 420.644ZM91.4788 446.916L150.977 453.78C152.097 453.909 152.886 455.043 152.739 456.313C152.592 457.582 151.564 458.507 150.444 458.378L90.9462 451.514C89.826 451.385 89.0371 450.251 89.1842 448.981C89.3312 447.711 90.3586 446.787 91.4788 446.916ZM70.5706 48.8363C69.7983 55.5045 66.6539 61.6221 61.8292 65.8437C57.0046 70.0652 50.8947 72.0446 44.844 71.3466C38.7933 70.6486 33.2971 67.3302 29.5647 62.1216C25.8324 56.9128 24.1694 50.2405 24.9418 43.5724C24.9418 43.5724 37.3416 50.5763 47.7562 46.2044C58.1709 41.8324 70.5706 48.8363 70.5706 48.8363ZM76.2228 66.8119C74.689 69.3419 72.9287 71.5966 71.0224 73.4502C69.8618 74.3339 68.8758 75.1745 67.9612 75.954L67.9612 75.9541C63.1671 80.0406 60.3376 82.4524 44.6299 80.6403C28.241 78.7496 26.4136 76.2913 21.9642 70.3058C21.3356 69.4602 20.6547 68.5441 19.873 67.5494C13.5581 59.5134 14.033 52.2107 15.0923 43.0652L21.6107 43.8172C20.1018 56.8442 24.9808 63.7489 24.9808 63.7489C24.9808 63.7489 29.0435 72.6341 45.3395 74.5141C61.6355 76.3941 66.6354 68.5543 66.6354 68.5543C66.6354 68.5543 73.3082 59.8762 74.5509 49.148L81.3834 49.9363C82.2571 49.7732 83.156 49.7142 84.0591 49.7644C86.3355 49.8911 88.5178 50.7055 90.282 52.0865C92.0464 53.4676 93.2984 55.3417 93.8524 57.4307C94.4064 59.5197 94.2329 61.7122 93.3575 63.6826C92.482 65.6531 90.9514 67.2965 88.993 68.3688C87.0345 69.4411 84.7525 69.8853 82.4859 69.6353C80.2193 69.3853 78.0887 68.4543 76.4106 66.9808C76.3473 66.9251 76.2847 66.8688 76.2228 66.8119ZM80.9584 55.5301C81.8176 55.0614 82.8088 54.8397 83.8109 54.8955C84.9147 54.9569 85.9727 55.3517 86.8282 56.0214C87.6837 56.691 88.2908 57.5997 88.5594 58.6126C88.828 59.6255 88.7438 60.6886 88.3194 61.644C87.8948 62.5994 87.1527 63.3962 86.2032 63.9161C85.2536 64.4362 84.1471 64.6515 83.0481 64.5303C81.949 64.4091 80.916 63.9577 80.1024 63.2432C79.5789 62.7836 79.1642 62.2309 78.8801 61.6223C79.7138 59.6701 80.4153 57.6256 80.9584 55.5301ZM14.3122 81.802L73.8101 88.6659C74.9303 88.7951 75.7192 89.9291 75.5721 91.1988C75.4251 92.4684 74.3977 93.3929 73.2775 93.2637L13.7797 86.3998C12.6595 86.2705 11.8706 85.1365 12.0176 83.8669C12.1647 82.5972 13.192 81.6728 14.3122 81.802ZM1014.83 427.264C1014.06 432.076 1011.58 436.414 1007.94 439.322C1004.31 442.231 999.814 443.471 995.447 442.772C991.08 442.072 987.199 439.49 984.659 435.592C982.118 431.694 981.126 426.801 981.9 421.988C981.9 421.988 990.67 427.465 998.366 424.626C1006.06 421.787 1014.83 427.264 1014.83 427.264ZM1018.36 440.484C1017.16 442.27 1015.81 443.85 1014.37 445.134C1013.5 445.738 1012.76 446.316 1012.07 446.852L1012.07 446.852C1008.46 449.664 1006.33 451.323 994.994 449.507C983.166 447.612 981.919 445.77 978.883 441.286C978.454 440.653 977.989 439.967 977.454 439.22C973.131 433.189 973.709 427.906 974.771 421.306L979.476 422.06C977.963 431.461 981.281 436.626 981.281 436.626C981.281 436.626 983.944 443.201 995.705 445.085C1007.47 446.97 1011.34 441.442 1011.34 441.442C1011.34 441.442 1016.46 435.36 1017.71 427.617L1022.64 428.407C1023.28 428.317 1023.93 428.302 1024.59 428.368C1026.23 428.532 1027.79 429.193 1029.03 430.251C1030.26 431.309 1031.11 432.709 1031.44 434.242C1031.78 435.775 1031.58 437.36 1030.89 438.761C1030.19 440.163 1029.02 441.306 1027.57 442.021C1026.11 442.737 1024.44 442.986 1022.81 442.732C1021.17 442.479 1019.66 441.735 1018.49 440.613C1018.44 440.57 1018.4 440.527 1018.36 440.484ZM1022.15 432.451C1022.79 432.139 1023.52 432.01 1024.24 432.082C1025.04 432.162 1025.8 432.482 1026.39 432.995C1026.99 433.508 1027.4 434.187 1027.57 434.93C1027.73 435.673 1027.63 436.442 1027.3 437.121C1026.96 437.801 1026.39 438.355 1025.69 438.702C1024.98 439.049 1024.17 439.17 1023.38 439.047C1022.59 438.924 1021.85 438.563 1021.28 438.019C1020.92 437.669 1020.64 437.255 1020.45 436.804C1021.12 435.415 1021.69 433.954 1022.15 432.451ZM972.963 449.382L1015.9 456.26C1016.71 456.39 1017.25 457.238 1017.1 458.154C1016.95 459.07 1016.18 459.708 1015.37 459.579L972.43 452.7C971.621 452.57 971.085 451.723 971.233 450.806C971.38 449.89 972.155 449.252 972.963 449.382ZM1486.34 241.04C1484.01 245.731 1480.08 249.391 1475.42 251.216C1470.76 253.042 1465.75 252.882 1461.49 250.772C1457.23 248.662 1454.08 244.775 1452.72 239.966C1451.36 235.157 1451.91 229.82 1454.24 225.129C1454.24 225.129 1461.49 233.544 1470.29 233.084C1479.1 232.624 1486.34 241.04 1486.34 241.04ZM1485.73 255.727C1483.93 257.179 1482.04 258.37 1480.15 259.227C1479.06 259.57 1478.12 259.926 1477.24 260.257L1477.24 260.257C1472.63 261.991 1469.92 263.015 1458.87 257.538C1447.34 251.823 1446.65 249.536 1444.97 243.967L1444.97 243.967L1444.97 243.967C1444.73 243.181 1444.47 242.328 1444.16 241.392C1441.66 233.826 1443.94 228.59 1447.15 222.156L1451.73 224.429C1447.17 233.594 1448.92 239.95 1448.92 239.95C1448.92 239.95 1449.55 247.545 1461.01 253.228C1472.48 258.91 1478.23 254.475 1478.23 254.475C1478.23 254.475 1485.42 249.866 1489.18 242.319L1493.99 244.702C1494.67 244.813 1495.35 245.007 1496 245.282C1497.63 245.976 1499.02 247.15 1499.95 248.629C1500.88 250.109 1501.3 251.815 1501.15 253.495C1501.01 255.175 1500.3 256.738 1499.13 257.954C1497.97 259.169 1496.41 259.971 1494.69 260.242C1492.97 260.512 1491.17 260.235 1489.57 259.453C1487.98 258.671 1486.66 257.425 1485.82 255.901C1485.79 255.843 1485.76 255.785 1485.73 255.727ZM1492.19 248.696C1492.95 248.579 1493.73 248.677 1494.45 248.983C1495.25 249.319 1495.92 249.889 1496.37 250.606C1496.82 251.323 1497.03 252.151 1496.95 252.965C1496.88 253.78 1496.54 254.538 1495.98 255.127C1495.41 255.716 1494.65 256.105 1493.82 256.236C1492.98 256.367 1492.12 256.233 1491.34 255.854C1490.57 255.475 1489.93 254.871 1489.52 254.132C1489.26 253.656 1489.1 253.141 1489.05 252.619C1490.18 251.406 1491.24 250.091 1492.19 248.696ZM1436.3 250.386L1478.16 271.133C1478.95 271.523 1479.23 272.564 1478.78 273.457C1478.34 274.35 1477.34 274.758 1476.55 274.367L1434.7 253.621C1433.91 253.23 1433.63 252.189 1434.07 251.296C1434.52 250.403 1435.52 249.996 1436.3 250.386ZM1330.3 104.308C1331.22 109.463 1330.26 114.74 1327.61 118.98C1324.96 123.219 1320.84 126.073 1316.16 126.913C1311.49 127.753 1306.63 126.512 1302.67 123.461C1298.7 120.41 1295.95 115.8 1295.02 110.645C1295.02 110.645 1305.87 113.086 1312.66 107.477C1319.45 101.867 1330.3 104.308 1330.3 104.308ZM1338.58 116.463C1338.01 118.698 1337.2 120.779 1336.19 122.592C1335.53 123.514 1334.98 124.364 1334.47 125.152C1331.82 129.283 1330.25 131.722 1318.1 133.903C1305.43 136.18 1303.51 134.755 1298.84 131.285C1298.18 130.795 1297.46 130.264 1296.65 129.697C1290.12 125.115 1288.82 119.553 1287.55 112.483L1292.59 111.578C1294.4 121.649 1299.61 125.708 1299.61 125.708C1299.61 125.708 1304.65 131.431 1317.25 129.168C1329.85 126.904 1331.81 119.923 1331.81 119.923C1331.81 119.923 1334.83 111.938 1333.34 103.645L1338.62 102.696C1339.24 102.377 1339.89 102.131 1340.58 101.965C1342.31 101.548 1344.12 101.665 1345.75 102.299C1347.38 102.934 1348.74 104.052 1349.63 105.488C1350.51 106.924 1350.88 108.6 1350.67 110.269C1350.46 111.938 1349.69 113.51 1348.47 114.752C1347.25 115.994 1345.65 116.839 1343.9 117.163C1342.15 117.486 1340.34 117.27 1338.76 116.547C1338.7 116.52 1338.64 116.492 1338.58 116.463ZM1339.57 106.97C1340.1 106.427 1340.79 106.038 1341.55 105.854C1342.39 105.652 1343.27 105.708 1344.06 106.016C1344.85 106.324 1345.51 106.866 1345.94 107.562C1346.37 108.258 1346.55 109.071 1346.45 109.88C1346.35 110.69 1345.97 111.452 1345.38 112.054C1344.79 112.656 1344.01 113.066 1343.16 113.223C1342.31 113.38 1341.44 113.275 1340.67 112.924C1340.18 112.699 1339.74 112.379 1339.39 111.989C1339.57 110.343 1339.64 108.658 1339.57 106.97ZM1295.72 141.595L1341.72 133.331C1342.58 133.175 1343.43 133.845 1343.6 134.826C1343.78 135.808 1343.22 136.73 1342.36 136.885L1296.36 145.149C1295.5 145.305 1294.65 144.635 1294.47 143.654C1294.3 142.672 1294.85 141.75 1295.72 141.595ZM1387.88 414.789C1387.67 420.022 1385.57 424.964 1382.07 428.529C1378.56 432.093 1373.92 433.987 1369.17 433.794C1364.42 433.602 1359.95 431.338 1356.74 427.501C1353.54 423.664 1351.85 418.569 1352.07 413.335C1352.07 413.335 1362.12 418.067 1369.97 414.062C1377.82 410.057 1387.88 414.789 1387.88 414.789ZM1393.32 428.449C1392.28 430.506 1391.04 432.362 1389.66 433.915C1388.81 434.67 1388.09 435.381 1387.42 436.041C1383.93 439.498 1381.87 441.539 1369.54 441.039C1356.68 440.517 1355.12 438.71 1351.3 434.31C1350.77 433.688 1350.18 433.015 1349.52 432.286C1344.14 426.399 1344.08 420.689 1344.37 413.511L1349.49 413.719C1349.07 423.943 1353.27 429.033 1353.27 429.033C1353.27 429.033 1356.95 435.711 1369.74 436.23C1382.53 436.75 1385.96 430.36 1385.96 430.36C1385.96 430.36 1390.65 423.22 1390.99 414.801L1396.36 415.018C1397.03 414.841 1397.72 414.743 1398.43 414.73C1400.21 414.696 1401.95 415.204 1403.41 416.176C1404.86 417.148 1405.94 418.534 1406.49 420.128C1407.05 421.721 1407.04 423.437 1406.47 425.021C1405.91 426.605 1404.81 427.973 1403.35 428.92C1401.89 429.868 1400.14 430.346 1398.36 430.283C1396.58 430.219 1394.87 429.618 1393.48 428.569C1393.43 428.529 1393.37 428.489 1393.32 428.449ZM1396.35 419.396C1396.99 418.981 1397.75 418.751 1398.53 418.737C1399.4 418.72 1400.24 418.966 1400.95 419.438C1401.65 419.909 1402.18 420.581 1402.44 421.354C1402.71 422.127 1402.71 422.959 1402.43 423.727C1402.16 424.495 1401.63 425.158 1400.92 425.617C1400.21 426.077 1399.36 426.308 1398.5 426.278C1397.64 426.247 1396.81 425.956 1396.13 425.447C1395.7 425.12 1395.34 424.714 1395.09 424.256C1395.62 422.689 1396.05 421.058 1396.35 419.396ZM1346.02 443.698L1392.72 445.593C1393.59 445.629 1394.27 446.466 1394.23 447.462C1394.19 448.459 1393.45 449.238 1392.57 449.202L1345.87 447.307C1344.99 447.271 1344.31 446.435 1344.35 445.438C1344.39 444.442 1345.14 443.663 1346.02 443.698ZM679.447 405.353C678.064 412.915 674.011 419.671 668.181 424.134C662.351 428.597 655.221 430.402 648.359 429.152C641.497 427.902 635.466 423.699 631.592 417.468C627.718 411.237 626.319 403.488 627.702 395.926C627.702 395.926 641.345 404.857 653.574 400.64C665.803 396.423 679.447 405.353 679.447 405.353ZM684.556 426.316C682.613 429.093 680.433 431.538 678.115 433.513C676.722 434.436 675.533 435.323 674.429 436.145L674.429 436.145C668.644 440.457 665.23 443.001 647.417 439.756C628.831 436.37 626.928 433.424 622.293 426.252L622.293 426.252C621.638 425.238 620.928 424.141 620.11 422.946C613.497 413.291 614.588 404.982 616.485 394.61L623.877 395.957C621.175 410.73 626.232 418.985 626.232 418.985C626.232 418.985 630.207 429.442 648.687 432.808C667.168 436.175 673.47 427.591 673.47 427.591C673.47 427.591 681.746 418.173 683.971 406.007L691.72 407.419C692.73 407.298 693.762 407.297 694.79 407.422C697.382 407.737 699.814 408.831 701.727 410.541C703.639 412.251 704.929 414.486 705.405 416.915C705.882 419.343 705.519 421.836 704.37 424.022C703.222 426.208 701.35 427.972 699.031 429.05C696.713 430.129 694.072 430.466 691.501 430.011C688.929 429.556 686.565 428.333 684.758 426.524C684.69 426.455 684.622 426.386 684.556 426.316ZM690.814 413.779C691.831 413.308 692.98 413.128 694.121 413.267C695.378 413.42 696.557 413.95 697.485 414.779C698.412 415.608 699.037 416.692 699.268 417.87C699.499 419.047 699.323 420.256 698.767 421.316C698.21 422.376 697.302 423.231 696.178 423.754C695.054 424.277 693.773 424.44 692.526 424.22C691.28 423.999 690.133 423.406 689.257 422.529C688.693 421.964 688.261 421.302 687.982 420.585C689.081 418.417 690.036 416.133 690.814 413.779ZM612.686 438.816L680.158 451.109C681.428 451.34 682.245 452.695 681.981 454.135C681.718 455.574 680.475 456.554 679.204 456.323L611.732 444.03C610.462 443.799 609.645 442.444 609.909 441.004C610.172 439.564 611.415 438.585 612.686 438.816Z" fill="#2F2105"/>
</g>
</svg>
